<svg width="1363" height="163" viewBox="0 0 1363 163" fill="none" xmlns="http://www.w3.org/2000/svg">
<path d="M0 15C0 6.71573 6.71573 0 15 0H37V163H15C6.71573 163 0 156.284 0 148V15Z" fill="#424242"/>
<rect width="1097" height="163" transform="translate(37)" fill="#F0F0F0"/>
<path d="M101.906 53.9219L94.3945 51.2383V48.0859L104.602 52.375V54.6367L101.906 53.9219ZM94.3945 56.1719L101.918 53.4297L104.602 52.7852V55.0352L94.3945 59.3242V56.1719ZM112.898 43.9375H119.262C120.566 43.9375 121.688 44.1328 122.625 44.5234C123.57 44.9141 124.297 45.4922 124.805 46.2578C125.312 47.0234 125.566 47.9648 125.566 49.082C125.566 49.9961 125.41 50.7812 125.098 51.4375C124.793 52.0859 124.359 52.6289 123.797 53.0664C123.242 53.4961 122.59 53.8398 121.84 54.0977L120.727 54.6836H115.195L115.172 51.9414H119.285C119.902 51.9414 120.414 51.832 120.82 51.6133C121.227 51.3945 121.531 51.0898 121.734 50.6992C121.945 50.3086 122.051 49.8555 122.051 49.3398C122.051 48.793 121.949 48.3203 121.746 47.9219C121.543 47.5234 121.234 47.2188 120.82 47.0078C120.406 46.7969 119.887 46.6914 119.262 46.6914H116.414V61H112.898V43.9375ZM122.438 61L118.547 53.3945L122.262 53.3711L126.199 60.8359V61H122.438ZM133.898 61.2344C132.914 61.2344 132.031 61.0781 131.25 60.7656C130.469 60.4453 129.805 60.0039 129.258 59.4414C128.719 58.8789 128.305 58.2266 128.016 57.4844C127.727 56.7344 127.582 55.9375 127.582 55.0938V54.625C127.582 53.6641 127.719 52.7852 127.992 51.9883C128.266 51.1914 128.656 50.5 129.164 49.9141C129.68 49.3281 130.305 48.8789 131.039 48.5664C131.773 48.2461 132.602 48.0859 133.523 48.0859C134.422 48.0859 135.219 48.2344 135.914 48.5312C136.609 48.8281 137.191 49.25 137.66 49.7969C138.137 50.3438 138.496 51 138.738 51.7656C138.98 52.5234 139.102 53.3672 139.102 54.2969V55.7031H129.023V53.4531H135.785V53.1953C135.785 52.7266 135.699 52.3086 135.527 51.9414C135.363 51.5664 135.113 51.2695 134.777 51.0508C134.441 50.832 134.012 50.7227 133.488 50.7227C133.043 50.7227 132.66 50.8203 132.34 51.0156C132.02 51.2109 131.758 51.4844 131.555 51.8359C131.359 52.1875 131.211 52.6016 131.109 53.0781C131.016 53.5469 130.969 54.0625 130.969 54.625V55.0938C130.969 55.6016 131.039 56.0703 131.18 56.5C131.328 56.9297 131.535 57.3008 131.801 57.6133C132.074 57.9258 132.402 58.168 132.785 58.3398C133.176 58.5117 133.617 58.5977 134.109 58.5977C134.719 58.5977 135.285 58.4805 135.809 58.2461C136.34 58.0039 136.797 57.6406 137.18 57.1562L138.82 58.9375C138.555 59.3203 138.191 59.6875 137.73 60.0391C137.277 60.3906 136.73 60.6797 136.09 60.9062C135.449 61.125 134.719 61.2344 133.898 61.2344ZM146.262 58.5977C146.676 58.5977 147.043 58.5195 147.363 58.3633C147.684 58.1992 147.934 57.9727 148.113 57.6836C148.301 57.3867 148.398 57.0391 148.406 56.6406H151.582C151.574 57.5312 151.336 58.3242 150.867 59.0195C150.398 59.707 149.77 60.25 148.98 60.6484C148.191 61.0391 147.309 61.2344 146.332 61.2344C145.348 61.2344 144.488 61.0703 143.754 60.7422C143.027 60.4141 142.422 59.9609 141.938 59.3828C141.453 58.7969 141.09 58.1172 140.848 57.3438C140.605 56.5625 140.484 55.7266 140.484 54.8359V54.4961C140.484 53.5977 140.605 52.7617 140.848 51.9883C141.09 51.207 141.453 50.5273 141.938 49.9492C142.422 49.3633 143.027 48.9062 143.754 48.5781C144.48 48.25 145.332 48.0859 146.309 48.0859C147.348 48.0859 148.258 48.2852 149.039 48.6836C149.828 49.082 150.445 49.6523 150.891 50.3945C151.344 51.1289 151.574 52 151.582 53.0078H148.406C148.398 52.5859 148.309 52.2031 148.137 51.8594C147.973 51.5156 147.73 51.2422 147.41 51.0391C147.098 50.8281 146.711 50.7227 146.25 50.7227C145.758 50.7227 145.355 50.8281 145.043 51.0391C144.73 51.2422 144.488 51.5234 144.316 51.8828C144.145 52.2344 144.023 52.6367 143.953 53.0898C143.891 53.5352 143.859 54.0039 143.859 54.4961V54.8359C143.859 55.3281 143.891 55.8008 143.953 56.2539C144.016 56.707 144.133 57.1094 144.305 57.4609C144.484 57.8125 144.73 58.0898 145.043 58.293C145.355 58.4961 145.762 58.5977 146.262 58.5977ZM157.102 48.3203V61H153.715V48.3203H157.102ZM153.504 45.0156C153.504 44.5234 153.676 44.1172 154.02 43.7969C154.363 43.4766 154.824 43.3164 155.402 43.3164C155.973 43.3164 156.43 43.4766 156.773 43.7969C157.125 44.1172 157.301 44.5234 157.301 45.0156C157.301 45.5078 157.125 45.9141 156.773 46.2344C156.43 46.5547 155.973 46.7148 155.402 46.7148C154.824 46.7148 154.363 46.5547 154.02 46.2344C153.676 45.9141 153.504 45.5078 153.504 45.0156ZM166.746 54.918H162.398V52.1758H166.746C167.418 52.1758 167.965 52.0664 168.387 51.8477C168.809 51.6211 169.117 51.3086 169.312 50.9102C169.508 50.5117 169.605 50.0625 169.605 49.5625C169.605 49.0547 169.508 48.582 169.312 48.1445C169.117 47.707 168.809 47.3555 168.387 47.0898C167.965 46.8242 167.418 46.6914 166.746 46.6914H163.617V61H160.102V43.9375H166.746C168.082 43.9375 169.227 44.1797 170.18 44.6641C171.141 45.1406 171.875 45.8008 172.383 46.6445C172.891 47.4883 173.145 48.4531 173.145 49.5391C173.145 50.6406 172.891 51.5938 172.383 52.3984C171.875 53.2031 171.141 53.8242 170.18 54.2617C169.227 54.6992 168.082 54.918 166.746 54.918ZM182.062 58.1406V52.4922C182.062 52.0859 181.996 51.7383 181.863 51.4492C181.73 51.1523 181.523 50.9219 181.242 50.7578C180.969 50.5938 180.613 50.5117 180.176 50.5117C179.801 50.5117 179.477 50.5781 179.203 50.7109C178.93 50.8359 178.719 51.0195 178.57 51.2617C178.422 51.4961 178.348 51.7734 178.348 52.0938H174.973C174.973 51.5547 175.098 51.043 175.348 50.5586C175.598 50.0742 175.961 49.6484 176.438 49.2812C176.914 48.9062 177.48 48.6133 178.137 48.4023C178.801 48.1914 179.543 48.0859 180.363 48.0859C181.348 48.0859 182.223 48.25 182.988 48.5781C183.754 48.9062 184.355 49.3984 184.793 50.0547C185.238 50.7109 185.461 51.5312 185.461 52.5156V57.9414C185.461 58.6367 185.504 59.207 185.59 59.6523C185.676 60.0898 185.801 60.4727 185.965 60.8008V61H182.555C182.391 60.6562 182.266 60.2266 182.18 59.7109C182.102 59.1875 182.062 58.6641 182.062 58.1406ZM182.508 53.2773L182.531 55.1875H180.645C180.199 55.1875 179.812 55.2383 179.484 55.3398C179.156 55.4414 178.887 55.5859 178.676 55.7734C178.465 55.9531 178.309 56.1641 178.207 56.4062C178.113 56.6484 178.066 56.9141 178.066 57.2031C178.066 57.4922 178.133 57.7539 178.266 57.9883C178.398 58.2148 178.59 58.3945 178.84 58.5273C179.09 58.6523 179.383 58.7148 179.719 58.7148C180.227 58.7148 180.668 58.6133 181.043 58.4102C181.418 58.207 181.707 57.957 181.91 57.6602C182.121 57.3633 182.23 57.082 182.238 56.8164L183.129 58.2461C183.004 58.5664 182.832 58.8984 182.613 59.2422C182.402 59.5859 182.133 59.9102 181.805 60.2148C181.477 60.5117 181.082 60.7578 180.621 60.9531C180.16 61.1406 179.613 61.2344 178.98 61.2344C178.176 61.2344 177.445 61.0742 176.789 60.7539C176.141 60.4258 175.625 59.9766 175.242 59.4062C174.867 58.8281 174.68 58.1719 174.68 57.4375C174.68 56.7734 174.805 56.1836 175.055 55.668C175.305 55.1523 175.672 54.7188 176.156 54.3672C176.648 54.0078 177.262 53.7383 177.996 53.5586C178.73 53.3711 179.582 53.2773 180.551 53.2773H182.508ZM191.625 43V61H188.238V43H191.625Z" fill="#888888"/>
<path d="M118.594 98.4219V104.75H101.086V98.4219H118.594ZM103.828 84.875V119H95.6016V84.875H103.828ZM124.125 84.875V119H115.922V84.875H124.125ZM127.992 106.578V106.086C127.992 104.227 128.258 102.516 128.789 100.953C129.32 99.375 130.102 98.0078 131.133 96.8516C132.164 95.6953 133.438 94.7969 134.953 94.1562C136.469 93.5 138.219 93.1719 140.203 93.1719C142.203 93.1719 143.961 93.5 145.477 94.1562C147.008 94.7969 148.289 95.6953 149.32 96.8516C150.352 98.0078 151.133 99.375 151.664 100.953C152.195 102.516 152.461 104.227 152.461 106.086V106.578C152.461 108.422 152.195 110.133 151.664 111.711C151.133 113.273 150.352 114.641 149.32 115.812C148.289 116.969 147.016 117.867 145.5 118.508C143.984 119.148 142.234 119.469 140.25 119.469C138.266 119.469 136.508 119.148 134.977 118.508C133.445 117.867 132.164 116.969 131.133 115.812C130.102 114.641 129.32 113.273 128.789 111.711C128.258 110.133 127.992 108.422 127.992 106.578ZM135.891 106.086V106.578C135.891 107.531 135.961 108.422 136.102 109.25C136.242 110.078 136.477 110.805 136.805 111.43C137.133 112.039 137.578 112.516 138.141 112.859C138.703 113.203 139.406 113.375 140.25 113.375C141.078 113.375 141.766 113.203 142.312 112.859C142.875 112.516 143.32 112.039 143.648 111.43C143.977 110.805 144.211 110.078 144.352 109.25C144.492 108.422 144.562 107.531 144.562 106.578V106.086C144.562 105.164 144.492 104.297 144.352 103.484C144.211 102.656 143.977 101.93 143.648 101.305C143.32 100.664 142.875 100.164 142.312 99.8047C141.75 99.4453 141.047 99.2656 140.203 99.2656C139.375 99.2656 138.68 99.4453 138.117 99.8047C137.57 100.164 137.133 100.664 136.805 101.305C136.477 101.93 136.242 102.656 136.102 103.484C135.961 104.297 135.891 105.164 135.891 106.086ZM163.688 111.453L168.375 93.6406H173.32L171.562 102.57L166.922 119H162.961L163.688 111.453ZM161.836 93.6406L164.742 111.312L165.07 119H160.266L154.266 93.6406H161.836ZM177.492 110.938L180.422 93.6406H187.992L182.039 119H177.234L177.492 110.938ZM173.883 93.6406L178.617 111.406L179.344 119H175.336L170.789 102.617L169.102 93.6406H173.883ZM218.297 84.875V119H210.07V84.875H218.297ZM228.562 84.875V91.2266H200.039V84.875H228.562ZM225.773 106.578V106.086C225.773 104.227 226.039 102.516 226.57 100.953C227.102 99.375 227.883 98.0078 228.914 96.8516C229.945 95.6953 231.219 94.7969 232.734 94.1562C234.25 93.5 236 93.1719 237.984 93.1719C239.984 93.1719 241.742 93.5 243.258 94.1562C244.789 94.7969 246.07 95.6953 247.102 96.8516C248.133 98.0078 248.914 99.375 249.445 100.953C249.977 102.516 250.242 104.227 250.242 106.086V106.578C250.242 108.422 249.977 110.133 249.445 111.711C248.914 113.273 248.133 114.641 247.102 115.812C246.07 116.969 244.797 117.867 243.281 118.508C241.766 119.148 240.016 119.469 238.031 119.469C236.047 119.469 234.289 119.148 232.758 118.508C231.227 117.867 229.945 116.969 228.914 115.812C227.883 114.641 227.102 113.273 226.57 111.711C226.039 110.133 225.773 108.422 225.773 106.578ZM233.672 106.086V106.578C233.672 107.531 233.742 108.422 233.883 109.25C234.023 110.078 234.258 110.805 234.586 111.43C234.914 112.039 235.359 112.516 235.922 112.859C236.484 113.203 237.188 113.375 238.031 113.375C238.859 113.375 239.547 113.203 240.094 112.859C240.656 112.516 241.102 112.039 241.43 111.43C241.758 110.805 241.992 110.078 242.133 109.25C242.273 108.422 242.344 107.531 242.344 106.578V106.086C242.344 105.164 242.273 104.297 242.133 103.484C241.992 102.656 241.758 101.93 241.43 101.305C241.102 100.664 240.656 100.164 240.094 99.8047C239.531 99.4453 238.828 99.2656 237.984 99.2656C237.156 99.2656 236.461 99.4453 235.898 99.8047C235.352 100.164 234.914 100.664 234.586 101.305C234.258 101.93 234.023 102.656 233.883 103.484C233.742 104.297 233.672 105.164 233.672 106.086ZM266.086 84.875H279.516C282.141 84.875 284.422 85.2656 286.359 86.0469C288.297 86.8281 289.789 87.9844 290.836 89.5156C291.898 91.0469 292.43 92.9375 292.43 95.1875C292.43 97.1406 292.125 98.7734 291.516 100.086C290.906 101.398 290.055 102.484 288.961 103.344C287.883 104.188 286.625 104.883 285.188 105.43L282.492 106.953H271.219L271.172 100.602H279.516C280.562 100.602 281.43 100.414 282.117 100.039C282.805 99.6641 283.32 99.1328 283.664 98.4453C284.023 97.7422 284.203 96.9062 284.203 95.9375C284.203 94.9531 284.023 94.1094 283.664 93.4062C283.305 92.7031 282.773 92.1641 282.07 91.7891C281.383 91.4141 280.531 91.2266 279.516 91.2266H274.312V119H266.086V84.875ZM284.766 119L277.219 103.906L285.938 103.859L293.578 118.648V119H284.766ZM311.836 112.836V93.6406H319.758V119H312.352L311.836 112.836ZM312.586 107.68L314.648 107.633C314.648 109.336 314.445 110.914 314.039 112.367C313.633 113.805 313.031 115.055 312.234 116.117C311.453 117.18 310.484 118.008 309.328 118.602C308.188 119.18 306.867 119.469 305.367 119.469C304.117 119.469 302.969 119.297 301.922 118.953C300.891 118.594 300 118.039 299.25 117.289C298.5 116.523 297.914 115.547 297.492 114.359C297.086 113.156 296.883 111.719 296.883 110.047V93.6406H304.781V110.094C304.781 110.656 304.852 111.141 304.992 111.547C305.133 111.953 305.336 112.297 305.602 112.578C305.867 112.844 306.195 113.047 306.586 113.188C306.992 113.312 307.453 113.375 307.969 113.375C309.156 113.375 310.086 113.125 310.758 112.625C311.43 112.125 311.898 111.445 312.164 110.586C312.445 109.727 312.586 108.758 312.586 107.68ZM331.875 99.0547V119H323.977V93.6406H331.383L331.875 99.0547ZM330.938 105.453L329.086 105.5C329.086 103.562 329.32 101.836 329.789 100.32C330.258 98.7891 330.922 97.4922 331.781 96.4297C332.641 95.3672 333.664 94.5625 334.852 94.0156C336.055 93.4531 337.391 93.1719 338.859 93.1719C340.031 93.1719 341.102 93.3438 342.07 93.6875C343.055 94.0312 343.898 94.5859 344.602 95.3516C345.32 96.1172 345.867 97.1328 346.242 98.3984C346.633 99.6484 346.828 101.195 346.828 103.039V119H338.883V103.016C338.883 102 338.742 101.227 338.461 100.695C338.18 100.148 337.773 99.7734 337.242 99.5703C336.711 99.3672 336.062 99.2656 335.297 99.2656C334.484 99.2656 333.797 99.4219 333.234 99.7344C332.672 100.047 332.219 100.484 331.875 101.047C331.547 101.594 331.305 102.242 331.148 102.992C331.008 103.742 330.938 104.562 330.938 105.453ZM363.773 108.195H357.047C357.047 106.82 357.141 105.609 357.328 104.562C357.531 103.5 357.875 102.547 358.359 101.703C358.844 100.859 359.5 100.078 360.328 99.3594C361.062 98.75 361.695 98.1641 362.227 97.6016C362.758 97.0391 363.164 96.4688 363.445 95.8906C363.727 95.3125 363.867 94.6953 363.867 94.0391C363.867 93.2266 363.75 92.5625 363.516 92.0469C363.297 91.5312 362.961 91.1484 362.508 90.8984C362.07 90.6328 361.516 90.5 360.844 90.5C360.297 90.5 359.781 90.6328 359.297 90.8984C358.828 91.1641 358.445 91.5781 358.148 92.1406C357.852 92.6875 357.688 93.4141 357.656 94.3203H349.711C349.758 91.9922 350.273 90.1016 351.258 88.6484C352.258 87.1797 353.586 86.1094 355.242 85.4375C356.914 84.75 358.781 84.4062 360.844 84.4062C363.125 84.4062 365.086 84.7578 366.727 85.4609C368.367 86.1641 369.625 87.2109 370.5 88.6016C371.375 89.9766 371.812 91.6719 371.812 93.6875C371.812 95.0312 371.555 96.2031 371.039 97.2031C370.539 98.1875 369.859 99.1094 369 99.9688C368.156 100.812 367.211 101.719 366.164 102.688C365.258 103.484 364.641 104.297 364.312 105.125C363.984 105.938 363.805 106.961 363.773 108.195ZM356.086 115.32C356.086 114.195 356.492 113.258 357.305 112.508C358.117 111.742 359.172 111.359 360.469 111.359C361.766 111.359 362.82 111.742 363.633 112.508C364.445 113.258 364.852 114.195 364.852 115.32C364.852 116.445 364.445 117.391 363.633 118.156C362.82 118.906 361.766 119.281 360.469 119.281C359.172 119.281 358.117 118.906 357.305 118.156C356.492 117.391 356.086 116.445 356.086 115.32Z" fill="black"/>
<path d="M1134 0H1348C1356.28 0 1363 6.71573 1363 15V148C1363 156.284 1356.28 163 1348 163H1134V0Z" fill="#FFBF4D"/>
<path d="M1260.62 78.8078C1263.81 78.8078 1266.93 79.7552 1269.59 81.5302C1272.25 83.3052 1274.32 85.8281 1275.54 88.7798C1276.76 91.7315 1277.08 94.9795 1276.46 98.1131C1275.84 101.247 1274.3 104.125 1272.04 106.384C1269.78 108.643 1266.9 110.182 1263.77 110.805C1260.63 111.428 1257.39 111.108 1254.43 109.886C1251.48 108.663 1248.96 106.593 1247.18 103.936C1245.41 101.28 1244.46 98.1565 1244.46 94.9616C1244.46 90.6774 1246.16 86.5686 1249.19 83.5392C1252.22 80.5097 1256.33 78.8078 1260.62 78.8078ZM1260.62 73.4232C1256.36 73.4232 1252.19 74.6864 1248.65 77.0531C1245.11 79.4198 1242.35 82.7836 1240.72 86.7192C1239.09 90.6549 1238.66 94.9855 1239.49 99.1636C1240.32 103.342 1242.37 107.179 1245.39 110.192C1248.4 113.204 1252.24 115.255 1256.41 116.086C1260.59 116.917 1264.92 116.491 1268.86 114.861C1272.79 113.23 1276.16 110.47 1278.52 106.928C1280.89 103.386 1282.15 99.2215 1282.15 94.9616C1282.15 89.2493 1279.88 83.7709 1275.85 79.7317C1271.81 75.6924 1266.33 73.4232 1260.62 73.4232Z" fill="white"/>
<path d="M1274.08 46.5H1220.23C1218.8 46.5 1217.43 47.0673 1216.42 48.0771C1215.41 49.0869 1214.85 50.4565 1214.85 51.8846V105.731C1214.85 107.159 1215.41 108.528 1216.42 109.538C1217.43 110.548 1218.8 111.115 1220.23 111.115H1231V105.731H1220.23V68.0384H1279.46V51.8846C1279.46 50.4565 1278.89 49.0869 1277.88 48.0771C1276.87 47.0673 1275.5 46.5 1274.08 46.5ZM1220.23 62.6538V51.8846H1274.08V62.6538H1220.23Z" fill="white"/>
<path d="M1255.23 86.8849V103.039L1268.69 94.9618L1255.23 86.8849Z" fill="white"/>
</svg>
